<?xml version="1.0" standalone="no"?><!-- Generator: Gravit.io --><svg xmlns="http://www.w3.org/2000/svg" xmlns:xlink="http://www.w3.org/1999/xlink" style="isolation:isolate" viewBox="0 0 320 320" width="320" height="320"><path d="M 115 151 C 115 99.12 157.12 57 209 57 C 260.88 57 303 99.12 303 151 C 303 202.88 260.88 245 209 245 C 157.12 245 115 202.88 115 151 Z M 268.158 176.001 C 274.26 169.64 278.001 161.004 278.001 151.501 C 278.001 131.908 262.094 116.001 242.501 116.001 C 222.908 116.001 207.001 131.908 207.001 151.501 C 207.001 161.004 210.743 169.64 216.845 176.001 C 223.298 169.22 232.411 165.001 242.501 165.001 C 252.592 165.001 261.704 169.22 268.158 176.001 Z" style="stroke:none;fill:#FFFFFF;stroke-miterlimit:10;"/><g id="null"><path d=" M 117.457 248.129 C 117.457 244.931 120.054 242.334 123.252 242.334 C 126.451 242.334 129.047 244.931 129.047 248.129 C 129.047 251.328 126.451 253.925 123.252 253.925 C 120.054 253.925 117.457 251.328 117.457 248.129 Z " fill="rgb(255,255,255)"/><path d=" M 80.876 128.795 C 80.876 125.597 83.473 123 86.671 123 C 89.869 123 92.466 125.597 92.466 128.795 C 92.466 131.994 89.869 134.59 86.671 134.59 C 83.473 134.59 80.876 131.994 80.876 128.795 Z " fill="rgb(255,255,255)"/><path d=" M 81.254 126.705 Q 76.662 137.193 74 155 C 72.187 167.125 72.991 184.732 75.647 195.547 C 78.159 205.778 83.409 218.7 91.728 228.852 Q 105.48 245.634 120.122 253.004 L 127.32 243.982 Q 115.227 234.387 105.977 219.895 C 99.797 210.213 96.748 204.254 92.678 191.804 C 88.44 178.843 88.437 166.465 88.887 156.206 Q 89.337 145.947 92.466 129.321 L 81.254 126.705 Z " fill="rgb(255,255,255)"/></g><g id="null"><path d=" M 79.625 250.429 C 79.377 248.266 80.932 246.309 83.095 246.061 C 85.258 245.814 87.215 247.369 87.462 249.531 C 87.71 251.694 86.155 253.651 83.993 253.899 C 81.83 254.146 79.873 252.592 79.625 250.429 Z " fill="rgb(255,255,255)"/><path d=" M 45.649 172.569 C 45.401 170.406 46.956 168.449 49.119 168.202 C 51.281 167.954 53.238 169.509 53.486 171.672 C 53.734 173.834 52.179 175.791 50.016 176.039 C 47.853 176.287 45.896 174.732 45.649 172.569 Z " fill="rgb(255,255,255)"/><path d=" M 45.742 171.127 Q 43.45 178.574 43.029 190.821 C 42.742 199.16 44.649 211.003 47.282 218.111 C 49.773 224.834 54.323 233.166 60.735 239.386 Q 71.333 249.669 81.805 253.518 L 85.973 246.861 Q 77.053 241.309 69.676 232.226 C 64.748 226.158 62.225 222.364 58.508 214.261 C 54.639 205.825 53.679 197.455 53.188 190.484 Q 52.698 183.512 53.527 172.027 L 45.742 171.127 Z " fill="rgb(255,255,255)"/></g><g id="null"><path d=" M 47.993 259.453 C 47.668 258.034 48.556 256.618 49.976 256.292 C 51.395 255.967 52.811 256.855 53.136 258.274 C 53.461 259.694 52.573 261.11 51.154 261.435 C 49.735 261.76 48.319 260.872 47.993 259.453 Z " fill="rgb(255,255,255)"/><path d=" M 19.634 210.227 C 19.309 208.808 20.197 207.392 21.616 207.067 C 23.035 206.742 24.451 207.63 24.776 209.049 C 25.101 210.468 24.213 211.884 22.794 212.209 C 21.375 212.534 19.959 211.646 19.634 210.227 Z " fill="rgb(255,255,255)"/><path d=" M 19.589 209.262 Q 18.618 214.381 19.247 222.552 C 19.676 228.116 21.822 235.845 24.099 240.374 C 26.254 244.657 29.896 249.857 34.619 253.515 Q 42.426 259.563 49.671 261.344 L 51.948 256.61 Q 45.607 253.582 40.03 248.093 C 36.305 244.426 34.346 242.092 31.275 236.982 C 28.077 231.662 26.818 226.171 25.975 221.574 Q 25.132 216.977 24.83 209.282 L 19.589 209.262 Z " fill="rgb(255,255,255)"/></g></svg>